<svg xmlns="http://www.w3.org/2000/svg" width="13" height="22" viewBox="0 0 13 22">
    <g fill="#FFF" fill-rule="evenodd">
        <path fill-rule="nonzero" d="M6.5 11.387A5.237 5.237 0 1 0 6.5.913a5.237 5.237 0 0 0 0 10.474zm0-7.4a2.168 2.168 0 1 1-1.534.633A2.17 2.17 0 0 1 6.5 3.983v.004z"/>
        <path d="M8.619 15.659a9.817 9.817 0 0 0 3.041-1.26 1.535 1.535 0 0 0-1.634-2.598 6.649 6.649 0 0 1-7.052 0A1.535 1.535 0 0 0 1.34 14.4a9.805 9.805 0 0 0 3.041 1.259l-2.928 2.928a1.536 1.536 0 0 0 2.17 2.17L6.5 17.88l2.877 2.877a1.534 1.534 0 1 0 2.17-2.17l-2.928-2.928z"/>
    </g>
</svg>
