<svg xmlns="http://www.w3.org/2000/svg" width="25" height="15" viewBox="0 0 25 15">
    <path fill="#FFF" fill-rule="evenodd" d="M12.281 14.254h1.397s.42-.047.636-.286c.199-.217.192-.623.192-.623s-.027-1.916.842-2.198c.87-.282 1.96 1.852 3.125 2.67.883.624 1.554.486 1.554.486l3.12-.045s1.631-.104.853-1.416c-.063-.107-.451-.97-2.317-2.744-1.951-1.857-1.694-1.557.662-4.768 1.436-1.957 2.01-3.151 1.83-3.662-.171-.488-1.227-.36-1.227-.36l-3.513.023a.781.781 0 0 0-.453.082.993.993 0 0 0-.311.386A21.18 21.18 0 0 1 17.374 4.6c-1.565 2.715-2.195 2.86-2.446 2.69-.594-.392-.446-1.579-.446-2.42 0-2.634.39-3.731-.76-4.016-.382-.094-.664-.156-1.64-.167-1.253-.012-2.317 0-2.916.306-.399.2-.707.646-.52.67.232.033.758.147 1.037.535.366.499.348 1.621.348 1.621s.207 3.1-.488 3.484c-.473.264-1.123-.275-2.518-2.744A23.305 23.305 0 0 1 5.77 1.9a1.066 1.066 0 0 0-.29-.4 1.433 1.433 0 0 0-.54-.224L1.604 1.3s-.5.015-.685.237c-.163.198-.012.608-.012.608S3.518 8.4 6.478 11.55c2.714 2.89 5.796 2.7 5.796 2.7l.007.004z"/>
</svg>
