<svg xmlns="http://www.w3.org/2000/svg" xmlns:xlink="http://www.w3.org/1999/xlink" width="101" height="30" viewBox="0 0 101 30">
    <defs>
        <path id="a" d="M0 .28h213.812V85H0z"/>
        <path id="b" d="M.176.354c.038.805.146 1.588.308 2.349.04.168.074.34.12.507.016.068.034.136.052.204 1.57 5.444 6.226 9.393 11.728 9.393h16.245c.1-.608.161-1.231.161-1.87 0-3.09-1.218-5.86-3.15-7.795C23.917 1.416 21.627.354 19.105.354H.176z"/>
        <linearGradient id="c" x1="0%" y1="50.001%" y2="50.001%">
            <stop offset="0%" stop-color="#00A9DE"/>
            <stop offset="100%" stop-color="#1F60AE"/>
        </linearGradient>
    </defs>
    <g fill="none" fill-rule="evenodd">
        <path fill="#006844" d="M71.957 13.776V28.54h9.047v-8.314h9.106c4.757 0 8.814-2.684 10.381-6.45H71.957z"/>
        <g transform="translate(72)">
            <mask id="d" fill="#fff">
                <use xlink:href="#b"/>
            </mask>
            <path fill="url(#c)" d="M.176.354c.038.805.146 1.588.308 2.349.04.168.074.34.12.507.016.068.034.136.052.204 1.57 5.444 6.226 9.393 11.728 9.393h16.245c.1-.608.161-1.231.161-1.87 0-3.09-1.218-5.86-3.15-7.795C23.917 1.416 21.627.354 19.105.354H.176z" mask="url(#d)"/>
        </g>
        <g fill="#006844">
            <path d="M55.64 5.222l-6.305 13.315h-.64V2.323h-8.956v27.438h7.6c1.996 0 3.81-1.131 4.647-2.898l6.305-13.315h.64v16.213h8.957V2.323h-7.602c-1.996 0-3.81 1.132-4.647 2.899M17.667 18.536h.64l3.73-12.607c.633-2.135 2.638-3.606 4.918-3.606H35.9v27.438h-8.957V13.548h-.64l-5.117 16.213h-6.398L9.67 13.548h-.64v16.213H.075V2.323h8.944c2.281 0 4.286 1.47 4.918 3.606l3.73 12.607z"/>
        </g>
    </g>
</svg>
